<svg width="57" height="57" viewBox="0 0 57 57" fill="none" xmlns="http://www.w3.org/2000/svg">
<path d="M37.3113 30.1863C39.6397 28.3543 41.3393 25.8422 42.1735 22.9994C43.0077 20.1565 42.9351 17.1244 41.9658 14.3247C40.9965 11.5251 39.1787 9.09719 36.7652 7.37879C34.3518 5.66039 31.4628 4.73695 28.5001 4.73695C25.5374 4.73695 22.6483 5.66039 20.2349 7.37879C17.8214 9.09719 16.0036 11.5251 15.0343 14.3247C14.065 17.1244 13.9924 20.1565 14.8266 22.9994C15.6608 25.8422 17.3604 28.3543 19.6888 30.1863C15.699 31.7847 12.2177 34.436 9.61617 37.8573C7.01461 41.2787 5.39027 45.3419 4.9163 49.6138C4.882 49.9256 4.90945 50.2412 4.99711 50.5425C5.08477 50.8438 5.23091 51.1249 5.42719 51.3697C5.8236 51.864 6.40016 52.1807 7.03005 52.25C7.65994 52.3193 8.29156 52.1355 8.78595 51.7391C9.28034 51.3427 9.59702 50.7661 9.6663 50.1363C10.1878 45.4936 12.4016 41.2058 15.8846 38.0921C19.3676 34.9785 23.8757 33.2572 28.5476 33.2572C33.2194 33.2572 37.7275 34.9785 41.2105 38.0921C44.6935 41.2058 46.9073 45.4936 47.4288 50.1363C47.4934 50.7198 47.7718 51.2588 48.2104 51.6492C48.649 52.0395 49.2167 52.2536 49.8038 52.25H50.0651C50.6876 52.1784 51.2566 51.8636 51.6481 51.3742C52.0396 50.8849 52.2218 50.2606 52.155 49.6375C51.6788 45.3535 50.0458 41.2799 47.4308 37.8532C44.8159 34.4266 41.3177 31.7763 37.3113 30.1863ZM28.5001 28.5C26.6211 28.5 24.7844 27.9428 23.2221 26.899C21.6599 25.8551 20.4422 24.3714 19.7232 22.6355C19.0042 20.8996 18.816 18.9895 19.1826 17.1466C19.5492 15.3038 20.4539 13.6111 21.7825 12.2825C23.1111 10.9539 24.8039 10.0491 26.6467 9.68255C28.4895 9.31599 30.3996 9.50412 32.1355 10.2232C33.8714 10.9422 35.3551 12.1598 36.399 13.7221C37.4429 15.2844 38.0001 17.1211 38.0001 19C38.0001 21.5196 36.9992 23.9359 35.2176 25.7175C33.436 27.4991 31.0196 28.5 28.5001 28.5Z" fill="white"/>
</svg>
